<?xml version="1.0" encoding="UTF-8" standalone="no"?>
<!-- Created with Inkscape (http://www.inkscape.org/) -->

<svg
   xmlns:dc="http://purl.org/dc/elements/1.1/"
   xmlns:cc="http://creativecommons.org/ns#"
   xmlns:rdf="http://www.w3.org/1999/02/22-rdf-syntax-ns#"
   xmlns:svg="http://www.w3.org/2000/svg"
   xmlns="http://www.w3.org/2000/svg"
   xmlns:sodipodi="http://sodipodi.sourceforge.net/DTD/sodipodi-0.dtd"
   xmlns:inkscape="http://www.inkscape.org/namespaces/inkscape"
   width="32"
   height="32"
   viewBox="0 0 31.999999 31.999997"
   id="svg4152"
   version="1.1"
   inkscape:version="0.92.3 (2405546, 2018-03-11)"
   sodipodi:docname="favicon.svg">
  <defs
     id="defs4154" />
  <sodipodi:namedview
     id="base"
     pagecolor="#ffffff"
     bordercolor="#666666"
     borderopacity="1.0"
     inkscape:pageopacity="0.0"
     inkscape:pageshadow="2"
     inkscape:zoom="16"
     inkscape:cx="6.942965"
     inkscape:cy="15.322253"
     inkscape:document-units="px"
     inkscape:current-layer="layer2"
     showgrid="false"
     units="px"
     fit-margin-top="0"
     fit-margin-left="0"
     fit-margin-right="0"
     fit-margin-bottom="0"
     inkscape:window-width="1836"
     inkscape:window-height="1058"
     inkscape:window-x="76"
     inkscape:window-y="-8"
     inkscape:window-maximized="1" />
  <metadata
     id="metadata4157">
    <rdf:RDF>
      <cc:Work
         rdf:about="">
        <dc:format>image/svg+xml</dc:format>
        <dc:type
           rdf:resource="http://purl.org/dc/dcmitype/StillImage" />
        <dc:title />
      </cc:Work>
    </rdf:RDF>
  </metadata>
  <g
     inkscape:label="src"
     inkscape:groupmode="layer"
     id="layer1"
     transform="translate(-8.9185341,-1016.7629)"
     style="display:none">
    <text
       xml:space="preserve"
       style="font-style:normal;font-variant:normal;font-weight:normal;font-stretch:normal;line-height:0%;font-family:monospace;-inkscape-font-specification:'monospace, Normal';text-align:start;letter-spacing:0px;word-spacing:0px;writing-mode:lr-tb;text-anchor:start;fill:#000000;fill-opacity:1;stroke:none;stroke-width:1px;stroke-linecap:butt;stroke-linejoin:miter;stroke-opacity:1"
       x="9.4082241"
       y="1026.4922"
       id="text4700"><tspan
         sodipodi:role="line"
         id="tspan4706"
         style="font-style:normal;font-variant:normal;font-weight:normal;font-stretch:normal;font-size:16.83811951px;line-height:64.99999762%;font-family:monospace;-inkscape-font-specification:'monospace, Normal';text-align:start;writing-mode:lr-tb;text-anchor:start"
         x="9.4082241"
         y="1026.4922">tsa</tspan><tspan
         sodipodi:role="line"
         id="tspan4708"
         style="font-style:normal;font-variant:normal;font-weight:normal;font-stretch:normal;font-size:16.83811951px;line-height:64.99999762%;font-family:monospace;-inkscape-font-specification:'monospace, Normal';text-align:start;writing-mode:lr-tb;text-anchor:start"
         x="9.4082241"
         y="1037.437">ryk</tspan><tspan
         sodipodi:role="line"
         id="tspan4710"
         style="font-style:normal;font-variant:normal;font-weight:normal;font-stretch:normal;font-size:16.83811951px;line-height:64.99999762%;font-family:monospace;-inkscape-font-specification:'monospace, Normal';text-align:start;writing-mode:lr-tb;text-anchor:start"
         x="9.4082241"
         y="1048.3817">com</tspan></text>
  </g>
  <g
     inkscape:groupmode="layer"
     id="layer2"
     inkscape:label="prod"
     style="display:inline">
    <rect
       id="rect4538"
       width="32"
       height="32"
       x="0"
       y="1.1518564e-015"
       style="fill:#ffffff;stroke-width:0.93301189" />
    <g
       aria-label="tsa
ryk
com"
       transform="translate(-8.9185341,-1016.7629)"
       style="font-style:normal;font-variant:normal;font-weight:normal;font-stretch:normal;line-height:0%;font-family:monospace;-inkscape-font-specification:'monospace, Normal';text-align:start;letter-spacing:0px;word-spacing:0px;writing-mode:lr-tb;text-anchor:start;display:inline;fill:#000000;fill-opacity:1;stroke:none;stroke-width:1px;stroke-linecap:butt;stroke-linejoin:miter;stroke-opacity:1"
       id="text842">
      <path
         d="m 13.042232,1019.3722 h 3.749113 q 0.246652,0 0.353535,0.099 0.106882,0.099 0.106882,0.2549 0,0.148 -0.106882,0.2466 -0.106883,0.099 -0.353535,0.099 h -3.749113 v 4.596 q 0,0.6001 0.476861,1.003 0.485083,0.4029 1.414139,0.4029 0.698848,0 1.5128,-0.2056 0.813952,-0.2137 1.266148,-0.4768 0.164434,-0.1069 0.271317,-0.1069 0.131548,0 0.230209,0.1069 0.09866,0.099 0.09866,0.2384 0,0.1233 -0.106882,0.2302 -0.263096,0.2713 -1.282591,0.592 -1.011274,0.3124 -1.940331,0.3124 -1.208595,0 -1.923886,-0.5673 -0.715291,-0.5673 -0.715291,-1.5292 v -4.596 h -1.27437 q -0.246652,0 -0.353535,-0.099 -0.106882,-0.099 -0.106882,-0.2548 0,-0.148 0.106882,-0.2467 0.106883,-0.099 0.353535,-0.099 h 1.27437 v -2.039 q 0,-0.2467 0.09866,-0.3536 0.09866,-0.1068 0.246653,-0.1068 0.156213,0 0.254873,0.1068 0.09866,0.1069 0.09866,0.3536 z"
         style="font-style:normal;font-variant:normal;font-weight:normal;font-stretch:normal;font-size:16.83811951px;line-height:64.99999762%;font-family:monospace;-inkscape-font-specification:'monospace, Normal';text-align:start;writing-mode:lr-tb;text-anchor:start"
         id="path870"
         inkscape:connector-curvature="0" />
      <path
         d="m 26.838309,1019.8244 q 0,-0.2385 0.09866,-0.3454 0.09866,-0.1068 0.246652,-0.1068 0.156213,0 0.254874,0.1068 0.09866,0.1069 0.09866,0.3618 v 1.1839 q 0,0.2467 -0.09866,0.3536 -0.09866,0.1068 -0.254874,0.1068 -0.13977,0 -0.238431,-0.09 -0.09044,-0.09 -0.106882,-0.296 -0.04933,-0.4933 -0.509748,-0.8139 -0.674182,-0.4604 -1.784117,-0.4604 -1.159265,0 -1.800561,0.4686 -0.485082,0.3535 -0.485082,0.7893 0,0.4933 0.575521,0.8222 0.394644,0.2302 1.496357,0.3535 1.438804,0.1562 1.997882,0.3535 0.797509,0.2878 1.18393,0.7975 0.394644,0.5098 0.394644,1.1017 0,0.8798 -0.846839,1.5704 -0.846839,0.6824 -2.482965,0.6824 -1.636126,0 -2.680287,-0.8304 0,0.2795 -0.03289,0.3618 -0.03289,0.082 -0.123326,0.1397 -0.08222,0.058 -0.1891,0.058 -0.147991,0 -0.246652,-0.1069 -0.09866,-0.1069 -0.09866,-0.3535 v -1.4224 q 0,-0.2466 0.09044,-0.3535 0.09866,-0.1069 0.254874,-0.1069 0.147992,0 0.246652,0.1069 0.106883,0.099 0.106883,0.2713 0,0.3782 0.1891,0.6331 0.287761,0.3946 0.912613,0.6577 0.633074,0.2549 1.545687,0.2549 1.348365,0 2.006104,-0.5015 0.657739,-0.5016 0.657739,-1.0607 0,-0.6412 -0.665961,-1.0277 -0.674183,-0.3864 -1.964995,-0.5179 -1.282592,-0.1316 -1.84167,-0.3454 -0.559078,-0.2137 -0.871504,-0.6412 -0.312426,-0.4276 -0.312426,-0.9209 0,-0.8879 0.871504,-1.4059 0.871504,-0.5262 2.0801,-0.5262 1.430582,0 2.326752,0.6989 z"
         style="font-style:normal;font-variant:normal;font-weight:normal;font-stretch:normal;font-size:16.83811951px;line-height:64.99999762%;font-family:monospace;-inkscape-font-specification:'monospace, Normal';text-align:start;writing-mode:lr-tb;text-anchor:start"
         id="path872"
         inkscape:connector-curvature="0" />
      <path
         d="m 36.638621,1026.4922 v -0.9948 q -1.504578,1.2661 -3.2147,1.2661 -1.241482,0 -1.94033,-0.6248 -0.698848,-0.6331 -0.698848,-1.5457 0,-1.0031 0.920835,-1.7513 0.920835,-0.7481 2.688508,-0.7481 0.476861,0 1.035939,0.066 0.559078,0.058 1.208596,0.1891 v -1.1181 q 0,-0.5673 -0.526192,-0.9866 -0.526191,-0.4193 -1.578573,-0.4193 -0.805731,0 -2.260978,0.4686 -0.263096,0.082 -0.337091,0.082 -0.131548,0 -0.230209,-0.099 -0.09044,-0.099 -0.09044,-0.2467 0,-0.1398 0.08222,-0.222 0.115104,-0.1233 0.929057,-0.3371 1.282591,-0.3453 1.94033,-0.3453 1.307256,0 2.038991,0.6495 0.731734,0.6413 0.731734,1.4553 v 4.5713 h 0.920835 q 0.254874,0 0.361757,0.099 0.106882,0.091 0.106882,0.2467 0,0.148 -0.106882,0.2466 -0.106883,0.099 -0.361757,0.099 z m 0,-3.4367 q -0.485083,-0.1398 -1.027718,-0.2055 -0.542634,-0.066 -1.142821,-0.066 -1.504578,0 -2.351417,0.6495 -0.641296,0.4851 -0.641296,1.1593 0,0.6248 0.485083,1.0523 0.493304,0.4276 1.430582,0.4276 0.89617,0 1.660791,-0.3536 0.772844,-0.3617 1.586796,-1.1428 z"
         style="font-style:normal;font-variant:normal;font-weight:normal;font-stretch:normal;font-size:16.83811951px;line-height:64.99999762%;font-family:monospace;-inkscape-font-specification:'monospace, Normal';text-align:start;writing-mode:lr-tb;text-anchor:start"
         id="path874"
         inkscape:connector-curvature="0" />
      <path
         d="m 13.634197,1030.3169 v 1.743 q 1.348365,-1.2168 2.014326,-1.5621 0.674183,-0.3535 1.241483,-0.3535 0.61663,0 1.142821,0.4193 0.534413,0.4111 0.534413,0.6248 0,0.1563 -0.106882,0.2631 -0.09866,0.099 -0.254874,0.099 -0.08222,0 -0.13977,-0.025 -0.05755,-0.033 -0.213765,-0.1891 -0.287761,-0.2877 -0.501526,-0.3946 -0.213765,-0.1069 -0.419309,-0.1069 -0.452195,0 -1.093491,0.3618 -0.633074,0.3617 -2.203426,1.7676 v 3.782 h 3.058487 q 0.254874,0 0.361756,0.099 0.106883,0.09 0.106883,0.2467 0,0.1479 -0.106883,0.2466 -0.106882,0.099 -0.361756,0.099 h -5.418125 q -0.246653,0 -0.353535,-0.09 -0.106883,-0.099 -0.106883,-0.2466 0,-0.1398 0.09866,-0.2302 0.106883,-0.099 0.361757,-0.099 h 1.669012 v -5.7552 h -1.274369 q -0.246652,0 -0.353535,-0.099 -0.106882,-0.099 -0.106882,-0.2548 0,-0.148 0.09866,-0.2467 0.106882,-0.099 0.361756,-0.099 z"
         style="font-style:normal;font-variant:normal;font-weight:normal;font-stretch:normal;font-size:16.83811951px;line-height:64.99999762%;font-family:monospace;-inkscape-font-specification:'monospace, Normal';text-align:start;writing-mode:lr-tb;text-anchor:start"
         id="path876"
         inkscape:connector-curvature="0" />
      <path
         d="m 24.601996,1037.437 -3.206478,-6.4212 h -0.205543 q -0.246652,0 -0.353535,-0.099 -0.106883,-0.099 -0.106883,-0.2466 0,-0.1069 0.04933,-0.1891 0.05755,-0.09 0.139769,-0.1234 0.09044,-0.041 0.271318,-0.041 h 1.891 q 0.246652,0 0.353534,0.099 0.106883,0.099 0.106883,0.2549 0,0.148 -0.106883,0.2466 -0.106882,0.099 -0.353534,0.099 h -0.929057 l 2.820056,5.6648 2.778948,-5.6648 h -0.929057 q -0.246652,0 -0.353534,-0.099 -0.106883,-0.099 -0.106883,-0.2548 0,-0.148 0.106883,-0.2467 0.106882,-0.099 0.353534,-0.099 h 1.882778 q 0.254874,0 0.361757,0.099 0.106882,0.099 0.106882,0.2549 0,0.1069 -0.06577,0.1973 -0.06577,0.09 -0.147992,0.1233 -0.08222,0.025 -0.460417,0.025 l -4.373965,8.9041 h 1.077048 q 0.246652,0 0.353535,0.09 0.106882,0.099 0.106882,0.2548 0,0.148 -0.106882,0.2467 -0.106883,0.099 -0.353535,0.099 h -3.979321 q -0.246652,0 -0.353535,-0.099 -0.106883,-0.09 -0.106883,-0.2467 0,-0.1562 0.106883,-0.2548 0.106883,-0.09 0.353535,-0.09 h 2.162317 z"
         style="font-style:normal;font-variant:normal;font-weight:normal;font-stretch:normal;font-size:16.83811951px;line-height:64.99999762%;font-family:monospace;-inkscape-font-specification:'monospace, Normal';text-align:start;writing-mode:lr-tb;text-anchor:start"
         id="path878"
         inkscape:connector-curvature="0" />
      <path
         d="m 33.251265,1034.362 v 3.075 h -1.619683 q -0.246652,0 -0.353535,-0.099 -0.106882,-0.099 -0.106882,-0.2466 0,-0.1563 0.106882,-0.2467 0.106883,-0.099 0.353535,-0.099 h 0.929057 v -8.9288 h -0.929057 q -0.246652,0 -0.353535,-0.099 -0.106882,-0.099 -0.106882,-0.2549 0,-0.148 0.106882,-0.2467 0.106883,-0.099 0.353535,-0.099 h 1.619683 v 6.3636 l 2.93516,-2.4665 H 35.83289 q -0.246652,0 -0.353534,-0.099 -0.106883,-0.099 -0.106883,-0.2466 0,-0.1562 0.106883,-0.2549 0.106882,-0.099 0.353534,-0.099 h 2.211648 q 0.254874,0 0.361756,0.099 0.106883,0.099 0.106883,0.2549 0,0.148 -0.106883,0.2466 -0.106882,0.099 -0.361756,0.099 h -0.797509 l -2.69673,2.2527 3.412021,3.4778 h 0.797509 q 0.254874,0 0.361757,0.099 0.106882,0.09 0.106882,0.2467 0,0.1479 -0.106882,0.2466 -0.106883,0.099 -0.361757,0.099 h -2.236313 q -0.246652,0 -0.353534,-0.099 -0.106883,-0.099 -0.106883,-0.2466 0,-0.1563 0.106883,-0.2467 0.106882,-0.099 0.353534,-0.099 h 0.485083 l -2.968048,-3.0502 z"
         style="font-style:normal;font-variant:normal;font-weight:normal;font-stretch:normal;font-size:16.83811951px;line-height:64.99999762%;font-family:monospace;-inkscape-font-specification:'monospace, Normal';text-align:start;writing-mode:lr-tb;text-anchor:start"
         id="path880"
         inkscape:connector-curvature="0" />
      <path
         d="m 17.342201,1041.9606 v -0.2302 q 0,-0.2549 0.09866,-0.3618 0.09866,-0.1069 0.246652,-0.1069 0.156213,0 0.254874,0.1069 0.09866,0.1069 0.09866,0.3618 v 1.5621 q -0.0082,0.2549 -0.106883,0.3617 -0.09044,0.1069 -0.246652,0.1069 -0.139769,0 -0.23843,-0.09 -0.09044,-0.099 -0.106883,-0.3207 -0.04933,-0.5837 -0.772843,-1.1099 -0.715291,-0.5262 -1.932109,-0.5262 -1.537465,0 -2.334973,0.962 -0.797509,0.9619 -0.797509,2.2034 0,1.3401 0.879726,2.2116 0.879726,0.8715 2.277422,0.8715 0.80573,0 1.636126,-0.2959 0.838617,-0.296 1.512799,-0.9538 0.172657,-0.1644 0.304205,-0.1644 0.139769,0 0.230208,0.099 0.09866,0.09 0.09866,0.2302 0,0.3535 -0.830395,0.8961 -1.340144,0.8798 -2.984491,0.8798 -1.669013,0 -2.746061,-1.0606 -1.068826,-1.0689 -1.068826,-2.705 0,-1.669 1.093491,-2.7707 1.101713,-1.1017 2.770726,-1.1017 1.586796,0 2.663843,0.9455 z"
         style="font-style:normal;font-variant:normal;font-weight:normal;font-stretch:normal;font-size:16.83811951px;line-height:64.99999762%;font-family:monospace;-inkscape-font-specification:'monospace, Normal';text-align:start;writing-mode:lr-tb;text-anchor:start"
         id="path882"
         inkscape:connector-curvature="0" />
      <path
         d="m 28.416883,1044.8382 q 0,1.5785 -1.1346,2.6967 -1.126378,1.1182 -2.721396,1.1182 -1.61146,0 -2.737838,-1.1182 -1.126378,-1.1264 -1.126378,-2.6967 0,-1.5786 1.126378,-2.6968 1.126378,-1.1263 2.737838,-1.1263 1.595018,0 2.721396,1.1181 1.1346,1.1182 1.1346,2.705 z m -0.698848,0 q 0,-1.2991 -0.929057,-2.2117 -0.920834,-0.9126 -2.236312,-0.9126 -1.315478,0 -2.244535,0.9208 -0.920834,0.9127 -0.920834,2.2035 0,1.2826 0.920834,2.2034 0.929057,0.9208 2.244535,0.9208 1.315478,0 2.236312,-0.9126 0.929057,-0.9208 0.929057,-2.2116 z"
         style="font-style:normal;font-variant:normal;font-weight:normal;font-stretch:normal;font-size:16.83811951px;line-height:64.99999762%;font-family:monospace;-inkscape-font-specification:'monospace, Normal';text-align:start;writing-mode:lr-tb;text-anchor:start"
         id="path884"
         inkscape:connector-curvature="0" />
      <path
         d="m 31.508256,1041.2617 v 0.6989 q 0.879726,-0.9455 1.767674,-0.9455 0.534413,0 0.937278,0.2877 0.402865,0.2796 0.674182,0.8551 0.460418,-0.5755 0.929057,-0.8551 0.476861,-0.2877 0.953721,-0.2877 0.748179,0 1.192152,0.485 0.583744,0.6249 0.583744,1.3649 v 4.8261 h 0.583743 q 0.246652,0 0.353535,0.099 0.106883,0.09 0.106883,0.2466 0,0.148 -0.106883,0.2467 -0.106883,0.099 -0.353535,0.099 h -1.274369 v -5.451 q 0,-0.5262 -0.320648,-0.8715 -0.320648,-0.3453 -0.739956,-0.3453 -0.3782,0 -0.797509,0.2878 -0.419309,0.2795 -0.953722,1.1099 v 4.5795 h 0.575522 q 0.246652,0 0.353535,0.099 0.106882,0.09 0.106882,0.2466 0,0.148 -0.106882,0.2467 -0.106883,0.099 -0.353535,0.099 h -1.274369 v -5.4016 q 0,-0.5509 -0.32887,-0.9044 -0.320648,-0.3618 -0.723513,-0.3618 -0.369978,0 -0.731734,0.2384 -0.501526,0.3371 -1.052383,1.1593 v 4.5795 H 32.092 q 0.246652,0 0.353534,0.099 0.106883,0.09 0.106883,0.2466 0,0.148 -0.106883,0.2467 -0.106882,0.099 -0.353534,0.099 h -1.858113 q -0.246652,0 -0.353535,-0.099 -0.106883,-0.099 -0.106883,-0.2467 0,-0.1562 0.106883,-0.2466 0.106883,-0.099 0.353535,-0.099 h 0.583743 v -5.7305 h -0.583743 q -0.246652,0 -0.353535,-0.099 -0.106883,-0.099 -0.106883,-0.2549 0,-0.148 0.106883,-0.2466 0.106883,-0.099 0.353535,-0.099 z"
         style="font-style:normal;font-variant:normal;font-weight:normal;font-stretch:normal;font-size:16.83811951px;line-height:64.99999762%;font-family:monospace;-inkscape-font-specification:'monospace, Normal';text-align:start;writing-mode:lr-tb;text-anchor:start"
         id="path886"
         inkscape:connector-curvature="0" />
    </g>
  </g>
</svg>
