<?xml version="1.0" encoding="UTF-8" standalone="no"?>
<!-- Created with Inkscape (http://www.inkscape.org/) -->

<svg
   xmlns:dc="http://purl.org/dc/elements/1.1/"
   xmlns:cc="http://creativecommons.org/ns#"
   xmlns:rdf="http://www.w3.org/1999/02/22-rdf-syntax-ns#"
   xmlns:svg="http://www.w3.org/2000/svg"
   xmlns="http://www.w3.org/2000/svg"
   xmlns:sodipodi="http://sodipodi.sourceforge.net/DTD/sodipodi-0.dtd"
   xmlns:inkscape="http://www.inkscape.org/namespaces/inkscape"
   width="1440"
   height="768"
   viewBox="0 0 1440 768.00001"
   id="svg2"
   version="1.1"
   inkscape:version="0.92.2 (5c3e80d, 2017-08-06)"
   sodipodi:docname="loading.svg">
  <defs
     id="defs4" />
  <sodipodi:namedview
     id="base"
     pagecolor="#ffffff"
     bordercolor="#666666"
     borderopacity="1.0"
     inkscape:pageopacity="0.0"
     inkscape:pageshadow="2"
     inkscape:zoom="0.49497475"
     inkscape:cx="711.93636"
     inkscape:cy="383.26309"
     inkscape:document-units="px"
     inkscape:current-layer="svg2"
     showgrid="true"
     inkscape:window-width="1301"
     inkscape:window-height="746"
     inkscape:window-x="65"
     inkscape:window-y="0"
     inkscape:window-maximized="1"
     units="px"
     gridtolerance="10"
     inkscape:snap-perpendicular="true"
     inkscape:snap-tangential="true"
     showguides="false">
    <inkscape:grid
       type="xygrid"
       id="grid4712"
       spacingy="60.000001"
       units="px"
       empspacing="1"
       spacingx="100"
       dotted="false"
       originy="-10" />
  </sodipodi:namedview>
  <metadata
     id="metadata7">
    <rdf:RDF>
      <cc:Work
         rdf:about="">
        <dc:format>image/svg+xml</dc:format>
        <dc:type
           rdf:resource="http://purl.org/dc/dcmitype/StillImage" />
        <dc:title></dc:title>
      </cc:Work>
    </rdf:RDF>
  </metadata>
  <rect
     style="fill:#4d4d4d;fill-opacity:0.69398911;stroke:none"
     id="rect4136"
     width="79.793228"
     height="17.172594"
     x="298.11115"
     y="39.738224"
     rx="8"
     ry="8" />
  <rect
     y="39.738224"
     x="95.343018"
     height="17.172594"
     width="84.366943"
     id="rect4155"
     style="fill:#4d4d4d;fill-opacity:0.69398911;stroke:none"
     rx="8"
     ry="8" />
  <rect
     y="39.738224"
     x="638.09082"
     height="17.172594"
     width="157.54643"
     id="rect4157"
     style="fill:#4d4d4d;fill-opacity:0.69398911;stroke:none"
     rx="8"
     ry="8" />
  <rect
     style="fill:#4d4d4d;fill-opacity:0.69398911;stroke:none"
     id="rect4159"
     width="157.54643"
     height="17.172594"
     x="924.71045"
     y="39.738224"
     rx="8"
     ry="8" />
  <rect
     y="88.684532"
     x="100"
     height="29.315451"
     width="169.59407"
     id="rect4161"
     style="fill:#4d4d4d;fill-opacity:0.69398911;stroke:none"
     rx="13"
     ry="13" />
  <rect
     style="fill:#4d4d4d;fill-opacity:0.69398911;stroke:none"
     id="rect4163"
     width="171.56331"
     height="29.315451"
     x="517.50049"
     y="151.15663"
     rx="13"
     ry="13" />
  <rect
     y="211.35713"
     x="153.5376"
     height="29.315451"
     width="199.87268"
     id="rect4165"
     style="fill:#4d4d4d;fill-opacity:0.69398911;stroke:none"
     rx="13"
     ry="13" />
  <rect
     y="97.970238"
     x="446.62927"
     height="17.172594"
     width="73.152878"
     id="rect4167"
     style="fill:#4d4d4d;fill-opacity:0.69398911;stroke:none"
     rx="8"
     ry="8" />
  <rect
     style="fill:#4d4d4d;fill-opacity:0.69398911;stroke:none"
     id="rect4169"
     width="191.95726"
     height="17.172594"
     x="646.50012"
     y="97.970238"
     rx="8"
     ry="8" />
  <rect
     y="97.970238"
     x="1093.7637"
     height="17.172594"
     width="247.86519"
     id="rect4171"
     style="fill:#4d4d4d;fill-opacity:0.69398911;stroke:none"
     rx="8"
     ry="8" />
  <rect
     y="159.72801"
     x="79.194702"
     height="17.172594"
     width="210.08815"
     id="rect4173"
     style="fill:#4d4d4d;fill-opacity:0.69398911;stroke:none"
     rx="8"
     ry="8" />
  <rect
     style="fill:#4d4d4d;fill-opacity:0.69398911;stroke:none"
     id="rect4175"
     width="267.90247"
     height="17.172594"
     x="1129.7013"
     y="159.72801"
     rx="8"
     ry="8" />
  <rect
     style="fill:#4d4d4d;fill-opacity:0.69398911;stroke:none"
     id="rect4177"
     width="210.08815"
     height="17.172594"
     x="504.90027"
     y="218.41225"
     rx="8"
     ry="8" />
  <rect
     y="218.41225"
     x="920.26208"
     height="17.172594"
     width="129.35678"
     id="rect4179"
     style="fill:#4d4d4d;fill-opacity:0.69398911;stroke:none"
     rx="8"
     ry="8" />
  <rect
     style="fill:#4d4d4d;fill-opacity:0.69398911;stroke:none"
     id="rect4181"
     width="145.18784"
     height="17.172594"
     x="1224.7061"
     y="278.45691"
     rx="8"
     ry="8" />
  <rect
     y="278.45691"
     x="607.77014"
     height="17.172594"
     width="199.61079"
     id="rect4183"
     style="fill:#4d4d4d;fill-opacity:0.69398911;stroke:none"
     rx="8"
     ry="8" />
  <rect
     y="278.45691"
     x="54.186157"
     height="17.172594"
     width="114.78464"
     id="rect4187"
     style="fill:#4d4d4d;fill-opacity:0.69398911;stroke:none"
     rx="8"
     ry="8" />
  <rect
     y="39.738224"
     x="1267.5258"
     height="17.172594"
     width="45.430729"
     id="rect4189"
     style="fill:#4d4d4d;fill-opacity:0.69398911;stroke:none"
     rx="8"
     ry="8" />
  <rect
     style="fill:#4d4d4d;fill-opacity:0.69398911;stroke:none"
     id="rect4181-3"
     width="145.18784"
     height="17.172594"
     x="1125.6222"
     y="337.02841"
     rx="8"
     ry="8" />
  <rect
     y="322.88626"
     x="766.27515"
     height="31.31473"
     width="189.50928"
     id="rect4183-8"
     style="fill:#4d4d4d;fill-opacity:0.69398911;stroke:none"
     rx="13"
     ry="13" />
  <rect
     style="fill:#4d4d4d;fill-opacity:0.69398911;stroke:none"
     id="rect4185-4"
     width="104.62982"
     height="17.172594"
     x="503.4375"
     y="337.02841"
     rx="8"
     ry="8" />
  <rect
     y="337.02841"
     x="101.57434"
     height="17.172594"
     width="163.27196"
     id="rect4187-7"
     style="fill:#4d4d4d;fill-opacity:0.69398911;stroke:none"
     rx="8"
     ry="8" />
  <rect
     style="fill:#4d4d4d;fill-opacity:0.69398911;stroke:none"
     id="rect4181-0"
     width="169.4315"
     height="32.886879"
     x="1185.2213"
     y="382.63138"
     rx="13"
     ry="13" />
  <rect
     y="398.34567"
     x="804.66101"
     height="17.172594"
     width="112.73768"
     id="rect4183-6"
     style="fill:#4d4d4d;fill-opacity:0.69398911;stroke:none"
     rx="8"
     ry="8" />
  <rect
     style="fill:#4d4d4d;fill-opacity:0.69398911;stroke:none"
     id="rect4185-2"
     width="158.16791"
     height="17.172594"
     x="488.28516"
     y="398.34567"
     rx="8"
     ry="8" />
  <rect
     y="398.34567"
     x="60.158142"
     height="17.172594"
     width="67.307465"
     id="rect4187-1"
     style="fill:#4d4d4d;fill-opacity:0.69398911;stroke:none"
     rx="8"
     ry="8" />
  <rect
     style="fill:#4d4d4d;fill-opacity:0.69398911;stroke:none"
     id="rect4181-08"
     width="78.517769"
     height="17.172594"
     x="1120.5715"
     y="458.34561"
     rx="8"
     ry="8" />
  <rect
     y="458.34561"
     x="743.04175"
     height="17.172594"
     width="112.73768"
     id="rect4183-4"
     style="fill:#4d4d4d;fill-opacity:0.69398911;stroke:none"
     rx="8"
     ry="8" />
  <rect
     style="fill:#4d4d4d;fill-opacity:0.69398911;stroke:none"
     id="rect4185-0"
     width="158.16791"
     height="29.294424"
     x="404.4425"
     y="446.22379"
     rx="13"
     ry="13" />
  <rect
     y="458.34561"
     x="83.391602"
     height="17.172594"
     width="85.490211"
     id="rect4187-8"
     style="fill:#4d4d4d;fill-opacity:0.69398911;stroke:none"
     rx="8"
     ry="8" />
  <rect
     style="fill:#4d4d4d;fill-opacity:0.69398911;stroke:none"
     id="rect4181-32"
     width="84.578682"
     height="17.172594"
     x="1278.1553"
     y="519.31409"
     rx="8"
     ry="8" />
  <rect
     y="519.31409"
     x="728.89966"
     height="17.172594"
     width="73.16272"
     id="rect4183-60"
     style="fill:#4d4d4d;fill-opacity:0.69398911;stroke:none"
     rx="8"
     ry="8" />
  <rect
     style="fill:#4d4d4d;fill-opacity:0.69398911;stroke:none"
     id="rect4185-7"
     width="79.376007"
     height="17.172594"
     x="443.83838"
     y="519.31409"
     rx="8"
     ry="8" />
  <rect
     y="519.31409"
     x="121.7774"
     height="17.172594"
     width="47.104412"
     id="rect4187-16"
     style="fill:#4d4d4d;fill-opacity:0.69398911;stroke:none"
     rx="8"
     ry="8" />
  <rect
     style="fill:#4d4d4d;fill-opacity:0.69398911;stroke:none"
     id="rect4181-7"
     width="28.010139"
     height="17.172594"
     x="1159.3756"
     y="578.34564"
     rx="8"
     ry="8" />
  <rect
     y="565.48853"
     x="829.32312"
     height="30.029737"
     width="66.27066"
     id="rect4183-7"
     style="fill:#4d4d4d;fill-opacity:0.69398911;stroke:none"
     rx="8"
     ry="8" />
  <rect
     style="fill:#4d4d4d;fill-opacity:0.69398911;stroke:none"
     id="rect4185-08"
     width="83.416618"
     height="17.172594"
     x="443.2467"
     y="578.34564"
     rx="8"
     ry="8" />
  <rect
     y="578.34564"
     x="103.00299"
     height="17.172594"
     width="159.23135"
     id="rect4187-0"
     style="fill:#4d4d4d;fill-opacity:0.69398911;stroke:none"
     rx="8"
     ry="8" />
  <rect
     style="fill:#4d4d4d;fill-opacity:0.69398911;stroke:none"
     id="rect4181-1"
     width="228.02034"
     height="17.172594"
     x="1125.8009"
     y="638.34558"
     rx="8"
     ry="8" />
  <rect
     y="638.34558"
     x="690.69238"
     height="17.172594"
     width="189.50928"
     id="rect4183-2"
     style="fill:#4d4d4d;fill-opacity:0.69398911;stroke:none"
     rx="8"
     ry="8" />
  <rect
     style="fill:#4d4d4d;fill-opacity:0.69398911;stroke:none"
     id="rect4185-75"
     width="214.73645"
     height="17.172594"
     x="376.33679"
     y="638.34558"
     rx="8"
     ry="8" />
  <rect
     y="638.34558"
     x="151.75299"
     height="17.172594"
     width="67.307465"
     id="rect4187-08"
     style="fill:#4d4d4d;fill-opacity:0.69398911;stroke:none"
     rx="8"
     ry="8" />
  <rect
     style="fill:#4d4d4d;fill-opacity:0.69398911;stroke:none"
     id="rect4181-8"
     width="64.375633"
     height="17.172594"
     x="1145.8253"
     y="698.42487"
     rx="8"
     ry="8" />
  <rect
     y="698.42487"
     x="842.03674"
     height="17.172594"
     width="112.73768"
     id="rect4183-0"
     style="fill:#4d4d4d;fill-opacity:0.69398911;stroke:none"
     rx="8"
     ry="8" />
  <rect
     style="fill:#4d4d4d;fill-opacity:0.69398911;stroke:none"
     id="rect4185-1"
     width="103.61967"
     height="17.172594"
     x="431.71655"
     y="698.42487"
     rx="8"
     ry="8" />
  <rect
     y="698.42487"
     x="101.57434"
     height="17.172594"
     width="67.307465"
     id="rect4187-9"
     style="fill:#4d4d4d;fill-opacity:0.69398911;stroke:none"
     rx="8"
     ry="8" />
  <rect
     style="fill:#4d4d4d;fill-opacity:0.69398911;stroke:none"
     id="rect4810"
     width="67.307465"
     height="17.172594"
     x="165.21399"
     y="398.34567"
     rx="8"
     ry="8" />
  <rect
     style="fill:#4d4d4d;fill-opacity:0.69398911;stroke:none"
     id="rect4812"
     width="47.104412"
     height="17.172594"
     x="283.40179"
     y="519.31409"
     rx="8"
     ry="8" />
  <rect
     style="fill:#4d4d4d;fill-opacity:0.69398911;stroke:none"
     id="rect4816"
     width="140.0118"
     height="17.172594"
     x="935.98096"
     y="519.31409"
     rx="8"
     ry="8" />
  <rect
     style="fill:#4d4d4d;fill-opacity:0.69398911;stroke:none"
     id="rect4818"
     width="129.35678"
     height="17.172594"
     x="1226.3384"
     y="218.41225"
     rx="8"
     ry="8" />
  <rect
     y="159.72801"
     x="907.46777"
     height="17.172594"
     width="89.105476"
     id="rect4820"
     style="fill:#4d4d4d;fill-opacity:0.69398911;stroke:none"
     rx="8"
     ry="8" />
  <rect
     y="398.34567"
     x="1051.8812"
     height="17.172594"
     width="44.172588"
     id="rect4822"
     style="fill:#4d4d4d;fill-opacity:0.69398911;stroke:none"
     rx="8"
     ry="8" />
</svg>
